<?xml version="1.0" encoding="utf-8"?>
<!-- Generator: Adobe Illustrator 24.0.1, SVG Export Plug-In . SVG Version: 6.00 Build 0)  -->
<svg version="1.1" id="Calque_1" xmlns="http://www.w3.org/2000/svg" xmlns:xlink="http://www.w3.org/1999/xlink" x="0px" y="0px"
	 width="120px" height="120px" viewBox="0 0 120 120" style="enable-background:new 0 0 120 120;" xml:space="preserve">
<g>
	<path style="fill:#FFE2BD;" d="M84.2,45.9c6.7-6,10.1-14.3,10.2-25.2V12h7.3V0H18.3v12.2h7.3v8.7C25.7,31.7,29.1,40,35.8,46
		c2.1,2,4.2,3.8,6.3,5.7c1.7,1.5,3.2,2.9,4.9,4.5l0,0l0.1,0.1c0.3,0.3,0.7,0.7,1,1l0.1,0.1c0.3,0.3,0.4,0.6,0.7,1c0,0,0,0.1,0.1,0.1
		c0.1,0.3,0.3,0.6,0.4,1v0.1c0.1,0.3,0.1,0.7,0.1,1c0,0.3,0,0.7-0.1,1v0.1c-0.1,0.3-0.3,0.6-0.4,1c0,0,0,0.1-0.1,0.1
		c-0.1,0.3-0.4,0.6-0.6,0.8l-0.1,0.1c-0.3,0.3-0.6,0.7-1,1L47.1,65l0,0c-1.7,1.5-3.2,2.9-4.9,4.5c-2.1,2-4.2,3.9-6.3,5.7
		c-6.7,6-10.1,14.3-10.2,25.2v7.4h-7.4V120h83.4v-12.2h-7.3v-7.4c-0.1-10.9-3.5-19.2-10.2-25.2c-2.1-2-4.2-3.8-6.3-5.7
		C76.2,68,74.7,66.6,73,65l0,0c-0.1,0-0.1-0.1-0.3-0.1c-0.3-0.3-0.7-0.6-0.8-1c0-0.1-0.1-0.1-0.1-0.3c-0.3-0.3-0.4-0.6-0.6-0.8
		c0-0.1-0.1-0.1-0.1-0.3c-0.1-0.3-0.3-0.6-0.4-0.8v-0.1c-0.1-0.3-0.1-0.7-0.1-1c0-0.3,0-0.7,0.1-1v-0.1c0.1-0.3,0.3-0.6,0.4-0.8
		c0,0,0-0.1,0.1-0.1c0.1-0.3,0.4-0.6,0.7-0.8l0.1-0.1c0.3-0.3,0.6-0.7,1-1l0.1-0.1l0,0c1.7-1.5,3.2-2.9,4.9-4.5
		C80,49.8,82.1,47.8,84.2,45.9z M69.8,53c-0.3,0.3-0.6,0.4-0.7,0.7c0,0,0,0-0.1,0.1c-1.8,1.8-2.8,3.8-3.1,5.7l0,0c0,0.3,0,0.6,0,0.7
		s0,0.1,0,0.3l0,0l0,0c0,0.1,0,0.1,0,0.3c0,0.3,0,0.6,0,0.7l0,0c0.3,2,1.3,3.9,3.1,5.7l0.1,0.1c0.3,0.3,0.4,0.4,0.7,0.7
		c1.7,1.5,3.4,3.1,5,4.6c2.1,2,4.2,3.9,6.4,5.7c5.9,5.3,8.7,12.3,8.8,22v7.4H30.2v-7.4c0.1-9.7,2.9-16.6,8.8-22
		c2.1-2,4.2-3.9,6.4-5.7c1.7-1.5,3.4-3.1,5-4.6c0.3-0.3,0.6-0.4,0.7-0.7c0,0,0,0,0.1-0.1c1.8-1.8,2.8-3.8,3.1-5.7l0,0
		c0-0.3,0-0.6,0-0.7s0-0.1,0-0.3l0,0l0,0c0-0.1,0-0.1,0-0.3c0-0.3,0-0.6,0-0.7l0,0c-0.3-2-1.3-3.9-3.1-5.7l-0.1-0.1
		c-0.3-0.3-0.4-0.4-0.7-0.7c-1.7-1.5-3.4-3.1-5-4.6c-2.1-2-4.2-3.9-6.4-5.7c-5.9-5.3-8.7-12.3-8.8-22V12h59.9v8.5
		c-0.1,9.7-2.9,16.6-8.8,22c-2.1,2-4.2,3.9-6.4,5.7C73.1,49.9,71.5,51.5,69.8,53z"/>
	<path style="fill:#FFE2BD;" d="M60,35.5c-8.5-2.8-15.7-0.6-19.9,1.4c0.6,0.7,1.3,1.4,2,2.1c2.1,2,4.3,3.9,6.4,5.9
		c1.7,1.5,3.4,3.1,4.9,4.5c0.4,0.3,0.7,0.7,1,1c0.1,0.1,0.3,0.3,0.6,0.6c0.4,0.4,0.8,1,1.1,1.4l0.1,0.1c1.5,2.1,2.5,5.9,2.5,5.9
		c1.4,1.8,2.4,0,2.4,0l0,0c0.3-1.7,1.1-3.8,2.5-5.7c0,0,0-0.1,0.1-0.1c0.4-0.4,0.7-1,1.1-1.4c0.1-0.1,0.3-0.3,0.4-0.4
		c0.3-0.3,0.7-0.7,1-1c1.7-1.5,3.4-3.1,4.9-4.5c2.1-2,4.3-3.9,6.4-5.9c1.7-1.5,2.9-3.1,4.1-5C74.3,37.9,71.2,39.2,60,35.5z"/>
	<path style="fill:#FFE2BD;" d="M60,69c0.6,0,1.1-0.3,1.5-0.7s0.7-1,0.7-1.5c0-0.1,0-0.3,0-0.4c0-0.1-0.1-0.3-0.1-0.4
		c0-0.1-0.1-0.3-0.3-0.4c-0.1-0.1-0.1-0.3-0.3-0.3c-0.8-0.8-2.4-0.8-3.1,0c-0.1,0.1-0.1,0.3-0.3,0.3C58,65.6,58,65.7,58,65.9
		c0,0.1-0.1,0.3-0.1,0.4c0,0.1,0,0.3,0,0.4c0,0.6,0.3,1.1,0.7,1.5C58.9,68.7,59.4,69,60,69z"/>
	<path style="fill:#FFE2BD;" d="M58.5,75.4c0.4,0.4,1,0.7,1.5,0.7c0.6,0,1.1-0.3,1.5-0.7s0.7-1,0.7-1.5c0-0.1,0-0.3,0-0.4
		c0-0.1-0.1-0.3-0.1-0.4c0-0.1-0.1-0.3-0.3-0.4c-0.1-0.1-0.1-0.3-0.3-0.3c-0.8-0.8-2.4-0.8-3.1,0c-0.1,0.1-0.1,0.3-0.3,0.3
		C58,72.7,58,72.9,58,73c0,0.1-0.1,0.3-0.1,0.4c0,0.1,0,0.3,0,0.4C57.8,74.4,58,75,58.5,75.4z"/>
	<path style="fill:#FFE2BD;" d="M37.3,102.7h45.3C82.7,90.1,72.4,80,60,80C47.6,80,37.3,90.2,37.3,102.7z"/>
</g>
</svg>
